<?xml version="1.0" encoding="UTF-8" standalone="no"?>
<!-- Created with Inkscape (http://www.inkscape.org/) -->

<svg
   xmlns:dc="http://purl.org/dc/elements/1.1/"
   xmlns:cc="http://creativecommons.org/ns#"
   xmlns:rdf="http://www.w3.org/1999/02/22-rdf-syntax-ns#"
   xmlns:svg="http://www.w3.org/2000/svg"
   xmlns="http://www.w3.org/2000/svg"
   xmlns:sodipodi="http://sodipodi.sourceforge.net/DTD/sodipodi-0.dtd"
   xmlns:inkscape="http://www.inkscape.org/namespaces/inkscape"
   width="210mm"
   height="297mm"
   id="svg2"
   version="1.1"
   inkscape:version="0.48.4 r9939"
   sodipodi:docname="Nuevo documento 1">
  <defs
     id="defs4" />
  <sodipodi:namedview
     id="base"
     pagecolor="#ffffff"
     bordercolor="#666666"
     borderopacity="1.0"
     inkscape:pageopacity="0.0"
     inkscape:pageshadow="2"
     inkscape:zoom="1"
     inkscape:cx="327.38738"
     inkscape:cy="861.91541"
     inkscape:document-units="px"
     inkscape:current-layer="layer1"
     showgrid="false"
     showguides="true"
     inkscape:guide-bbox="true"
     inkscape:window-width="1920"
     inkscape:window-height="1031"
     inkscape:window-x="0"
     inkscape:window-y="0"
     inkscape:window-maximized="1">
    <sodipodi:guide
       orientation="0,1"
       position="245.88031,702.2856"
       id="guide3895" />
  </sodipodi:namedview>
  <metadata
     id="metadata7">
    <rdf:RDF>
      <cc:Work
         rdf:about="">
        <dc:format>image/svg+xml</dc:format>
        <dc:type
           rdf:resource="http://purl.org/dc/dcmitype/StillImage" />
        <dc:title></dc:title>
      </cc:Work>
    </rdf:RDF>
  </metadata>
  <g
     inkscape:label="Capa 1"
     inkscape:groupmode="layer"
     id="layer1">
    <path
       sodipodi:type="arc"
       style="fill:#000000"
       id="path3050"
       sodipodi:cx="367.21341"
       sodipodi:cy="173.29988"
       sodipodi:rx="59.46125"
       sodipodi:ry="59.46125"
       d="m 426.67466,173.29988 a 59.46125,59.46125 0 1 1 -118.9225,0 59.46125,59.46125 0 1 1 118.9225,0 z"
       transform="translate(-268.41676,-78.68456)" />
    <path
       sodipodi:type="arc"
       style="fill:#ffffff"
       id="path3820"
       sodipodi:cx="365.60635"
       sodipodi:cy="77.278"
       sodipodi:rx="20.088261"
       sodipodi:ry="20.490026"
       d="m 385.69461,77.278 a 20.088261,20.490026 0 1 1 -40.17652,0 20.088261,20.490026 0 1 1 40.17652,0 z"
       transform="translate(-266.80971,17.33732)" />
    <path
       sodipodi:type="arc"
       style="fill:#000000"
       id="path3830"
       sodipodi:cx="229.40794"
       sodipodi:cy="270.12531"
       sodipodi:rx="12.454721"
       sodipodi:ry="12.454721"
       d="m 241.86267,270.12531 a 12.454721,12.454721 0 1 1 -24.90945,0 12.454721,12.454721 0 1 1 24.90945,0 z"
       transform="matrix(0.83870967,0,0,0.83870967,-93.610016,-131.94138)" />
    <path
       sodipodi:type="arc"
       style="fill:#000000"
       id="path3050-2"
       sodipodi:cx="367.21341"
       sodipodi:cy="173.29988"
       sodipodi:rx="59.46125"
       sodipodi:ry="59.46125"
       d="m 426.67466,173.29988 a 59.46125,59.46125 0 1 1 -118.9225,0 59.46125,59.46125 0 1 1 118.9225,0 z"
       transform="translate(-140.65543,-78.68455)" />
    <path
       sodipodi:type="arc"
       style="fill:#ffffff"
       id="path3820-1"
       sodipodi:cx="365.60635"
       sodipodi:cy="77.278"
       sodipodi:rx="20.088261"
       sodipodi:ry="20.490026"
       d="m 385.69461,77.278 a 20.088261,20.490026 0 1 1 -40.17652,0 20.088261,20.490026 0 1 1 40.17652,0 z"
       transform="translate(-139.04838,17.33733)" />
    <path
       sodipodi:type="arc"
       style="fill:#000000"
       id="path3830-9"
       sodipodi:cx="229.40794"
       sodipodi:cy="270.12531"
       sodipodi:rx="12.454721"
       sodipodi:ry="12.454721"
       d="m 241.86267,270.12531 a 12.454721,12.454721 0 1 1 -24.90945,0 12.454721,12.454721 0 1 1 24.90945,0 z"
       transform="matrix(0.83870967,0,0,0.83870967,34.151313,-131.94137)" />
    <rect
       style="fill:#000000"
       id="rect3897"
       width="74.728333"
       height="19.284731"
       x="234.68155"
       y="35.33519" />
    <rect
       style="fill:#ffffff"
       id="rect3902"
       width="20.89179"
       height="13.660017"
       x="237.89566"
       y="38.147552" />
    <rect
       style="fill:#ffffff"
       id="rect3902-0"
       width="20.89179"
       height="13.660017"
       x="261.50854"
       y="38.147552" />
    <rect
       style="fill:#ffffff"
       id="rect3902-0-9"
       width="20.89179"
       height="13.660017"
       x="285.30396"
       y="38.147552" />
  </g>
</svg>
